<svg id="visual" viewBox="0 0 960 540" width="960" height="540" xmlns="http://www.w3.org/2000/svg" xmlns:xlink="http://www.w3.org/1999/xlink" version="1.1"><rect x="0" y="0" width="960" height="540" fill="#000000"></rect><path d="M0 48L32 55.3C64 62.7 128 77.3 192 84.2C256 91 320 90 384 88.5C448 87 512 85 576 85C640 85 704 87 768 82.5C832 78 896 67 928 61.5L960 56L960 0L928 0C896 0 832 0 768 0C704 0 640 0 576 0C512 0 448 0 384 0C320 0 256 0 192 0C128 0 64 0 32 0L0 0Z" fill="#00c5ff"></path><path d="M0 82L32 81.7C64 81.3 128 80.7 192 73.3C256 66 320 52 384 51.8C448 51.7 512 65.3 576 67.5C640 69.7 704 60.3 768 59.8C832 59.3 896 67.7 928 71.8L960 76L960 0L928 0C896 0 832 0 768 0C704 0 640 0 576 0C512 0 448 0 384 0C320 0 256 0 192 0C128 0 64 0 32 0L0 0Z" fill="#679df8"></path><path d="M0 51L32 47.3C64 43.7 128 36.3 192 30.3C256 24.3 320 19.7 384 17.8C448 16 512 17 576 18.7C640 20.3 704 22.7 768 27.2C832 31.7 896 38.3 928 41.7L960 45L960 0L928 0C896 0 832 0 768 0C704 0 640 0 576 0C512 0 448 0 384 0C320 0 256 0 192 0C128 0 64 0 32 0L0 0Z" fill="#ac68c9"></path><path d="M0 22L32 20C64 18 128 14 192 12.8C256 11.7 320 13.3 384 17.8C448 22.3 512 29.7 576 32.7C640 35.7 704 34.3 768 29.7C832 25 896 17 928 13L960 9L960 0L928 0C896 0 832 0 768 0C704 0 640 0 576 0C512 0 448 0 384 0C320 0 256 0 192 0C128 0 64 0 32 0L0 0Z" fill="#c72476"></path></svg>