<svg id="visual" viewBox="0 0 960 540" width="960" height="540" xmlns="http://www.w3.org/2000/svg" xmlns:xlink="http://www.w3.org/1999/xlink" version="1.1"><rect x="0" y="0" width="960" height="540" fill="#000000"></rect><g transform="translate(1020.786739600956 -62.73163385929857)"><path d="M270.1 -306.9C334.9 -267.5 362 -168 379.4 -67.2C396.7 33.6 404.5 135.8 352.6 182.9C300.8 230 189.4 222.1 86 277.5C-17.3 333 -112.5 451.9 -193.4 455.4C-274.2 458.9 -340.6 347 -405.4 234.3C-470.3 121.6 -533.5 8.2 -508.4 -81.9C-483.4 -172 -369.9 -238.8 -270.4 -272.1C-171 -305.4 -85.5 -305.2 8.6 -315.4C102.6 -325.6 205.3 -346.3 270.1 -306.9" fill="#FF0066"></path></g></svg>